<svg width="25" height="24" viewBox="0 0 25 24" fill="none" xmlns="http://www.w3.org/2000/svg">
<path d="M16.8567 1.39979H16.8567H7.31098C6.20635 1.39979 5.30184 2.30429 5.30184 3.40892V11.4227H4.20863C3.104 11.4227 2.1995 12.3272 2.1995 13.4319V20.5911C2.1995 21.6958 3.104 22.6003 4.20863 22.6003H21.3909C22.4955 22.6003 23.4 21.6958 23.4 20.5911V13.4319C23.4 12.3272 22.4955 11.4227 21.3909 11.4227H20.7749V5.31806C20.7749 5.16495 20.7141 5.01813 20.6058 4.90989L17.2648 1.56891C17.2648 1.56891 17.2648 1.56891 17.2648 1.5689C17.1566 1.46065 17.0098 1.39982 16.8567 1.39979ZM18.4435 12.5715L18.4435 12.5716L17.8329 14.4042C17.8329 14.4042 17.8329 14.4042 17.8329 14.4042C17.7607 14.6207 17.5622 14.7637 17.3339 14.7637H8.58343C8.36839 14.7637 8.18403 14.6246 8.12492 14.4177L7.60755 12.6065L7.5114 12.6339L7.60755 12.6065C7.44739 12.0459 7.00067 11.6264 6.45641 11.4813V3.40892C6.45641 2.92706 6.82912 2.55435 7.31098 2.55435H15.8021V4.84077C15.8021 5.68099 16.4937 6.37262 17.3339 6.37262H19.6204V11.4797C19.0781 11.6195 18.6265 12.0227 18.4435 12.5715ZM18.9287 14.7695L18.9287 14.7695L19.5393 12.9368C19.5393 12.9368 19.5393 12.9368 19.5393 12.9368C19.6115 12.7203 19.81 12.5773 20.0382 12.5773H21.3909C21.8727 12.5773 22.2454 12.95 22.2454 13.4319V20.5911C22.2454 21.073 21.8727 21.4457 21.3909 21.4457H4.20863C3.72678 21.4457 3.35407 21.073 3.35407 20.5911V13.4319C3.35407 12.95 3.72678 12.5773 4.20863 12.5773H6.03853C6.25357 12.5773 6.43793 12.7165 6.49704 12.9233L7.0144 14.7346L7.11056 14.7071L7.01441 14.7346C7.21391 15.4329 7.85716 15.9183 8.58343 15.9183H17.3339C18.0554 15.9183 18.7005 15.454 18.9287 14.7695ZM16.9567 4.84077V2.8934L19.2813 5.21806H17.3339C17.1165 5.21806 16.9567 5.05822 16.9567 4.84077Z" fill="#070F21" stroke="#070F21" stroke-width="0.2"/>
<path d="M9.22011 6.64994C9.06701 6.64994 8.92017 6.71076 8.81191 6.81902C8.70365 6.92728 8.64283 7.07412 8.64283 7.22722C8.64283 7.38033 8.70365 7.52716 8.81191 7.63542C8.92017 7.74369 9.06701 7.80451 9.22011 7.80451H14.9475C15.1006 7.80451 15.2475 7.74369 15.3557 7.63542C15.464 7.52716 15.5248 7.38033 15.5248 7.22722C15.5248 7.07412 15.464 6.92728 15.3557 6.81902C15.2475 6.71076 15.1006 6.64994 14.9475 6.64994H9.22011Z" fill="#070F21" stroke="#070F21" stroke-width="0.2"/>
<path d="M9.22011 9.03629C9.06701 9.03629 8.92017 9.09711 8.81191 9.20537C8.70365 9.31364 8.64283 9.46047 8.64283 9.61358C8.64283 9.76668 8.70365 9.91352 8.81191 10.0218C8.92017 10.13 9.06701 10.1909 9.22011 10.1909H16.8567C17.0098 10.1909 17.1566 10.13 17.2649 10.0218C17.3731 9.91351 17.4339 9.76668 17.4339 9.61358C17.4339 9.46047 17.3731 9.31364 17.2649 9.20537C17.1566 9.09711 17.0098 9.03629 16.8567 9.03629H9.22011Z" fill="#070F21" stroke="#070F21" stroke-width="0.2"/>
<path d="M9.22011 11.4227C9.06701 11.4227 8.92017 11.4836 8.81191 11.5918C8.70365 11.7001 8.64283 11.8469 8.64283 12C8.64283 12.1531 8.70365 12.3 8.81191 12.4082C8.92017 12.5165 9.06701 12.5773 9.22011 12.5773H14.9475C15.1006 12.5773 15.2475 12.5165 15.3557 12.4082C15.464 12.3 15.5248 12.1531 15.5248 12C15.5248 11.8469 15.464 11.7001 15.3557 11.5918C15.2475 11.4836 15.1006 11.4227 14.9475 11.4227H9.22011Z" fill="#070F21" stroke="#070F21" stroke-width="0.2"/>
</svg>
