<svg width="25" height="24" viewBox="0 0 25 24" fill="none" xmlns="http://www.w3.org/2000/svg">
<path d="M19.361 3.33333H18.5857V2.66667C18.5857 2.48986 18.518 2.32029 18.3974 2.19526C18.2769 2.07024 18.1133 2 17.9428 2C17.7723 2 17.6088 2.07024 17.4883 2.19526C17.3677 2.32029 17.3 2.48986 17.3 2.66667V3.33333H13.4428V2.66667C13.4428 2.48986 13.3751 2.32029 13.2546 2.19526C13.134 2.07024 12.9705 2 12.8 2C12.6295 2 12.466 2.07024 12.3454 2.19526C12.2249 2.32029 12.1571 2.48986 12.1571 2.66667V3.33333H8.29999V2.66667C8.29999 2.48986 8.23226 2.32029 8.1117 2.19526C7.99114 2.07024 7.82763 2 7.65713 2C7.48663 2 7.32312 2.07024 7.20256 2.19526C7.082 2.32029 7.01427 2.48986 7.01427 2.66667V3.33333H6.23899C5.59244 3.33439 4.97266 3.60121 4.51548 4.07533C4.0583 4.54944 3.80101 5.19217 3.79999 5.86267V19.4707C3.80101 20.1412 4.0583 20.7839 4.51548 21.258C4.97266 21.7321 5.59244 21.9989 6.23899 22H19.361C20.0075 21.9989 20.6273 21.7321 21.0845 21.258C21.5417 20.7839 21.799 20.1412 21.8 19.4707V5.86267C21.799 5.19217 21.5417 4.54944 21.0845 4.07533C20.6273 3.60121 20.0075 3.33439 19.361 3.33333ZM20.5143 19.4707C20.5133 19.7875 20.3914 20.0911 20.1754 20.3152C19.9593 20.5393 19.6665 20.6656 19.361 20.6667H6.23899C5.93343 20.6656 5.64068 20.5393 5.42461 20.3152C5.20855 20.0911 5.08672 19.7875 5.0857 19.4707V5.86267C5.08672 5.54579 5.20855 5.2422 5.42461 5.01813C5.64068 4.79407 5.93343 4.66772 6.23899 4.66667H7.01427V5.33333C7.01427 5.51014 7.082 5.67971 7.20256 5.80474C7.32312 5.92976 7.48663 6 7.65713 6C7.82763 6 7.99114 5.92976 8.1117 5.80474C8.23226 5.67971 8.29999 5.51014 8.29999 5.33333V4.66667H12.1571V5.33333C12.1571 5.51014 12.2249 5.67971 12.3454 5.80474C12.466 5.92976 12.6295 6 12.8 6C12.9705 6 13.134 5.92976 13.2546 5.80474C13.3751 5.67971 13.4428 5.51014 13.4428 5.33333V4.66667H17.3V5.33333C17.3 5.51014 17.3677 5.67971 17.4883 5.80474C17.6088 5.92976 17.7723 6 17.9428 6C18.1133 6 18.2769 5.92976 18.3974 5.80474C18.518 5.67971 18.5857 5.51014 18.5857 5.33333V4.66667H19.361C19.6665 4.66772 19.9593 4.79407 20.1754 5.01813C20.3914 5.2422 20.5133 5.54579 20.5143 5.86267V19.4707Z" fill="#fff"/>
<path d="M10.5895 9.16885L8.95162 10.5481L8.02805 9.77035C7.96216 9.7129 7.88334 9.66708 7.7962 9.63556C7.70905 9.60403 7.61532 9.58744 7.52048 9.58674C7.42564 9.58605 7.33158 9.60127 7.2438 9.63151C7.15601 9.66176 7.07626 9.70642 7.0092 9.7629C6.94213 9.81937 6.88909 9.88653 6.85318 9.96046C6.81726 10.0344 6.79919 10.1136 6.80001 10.1935C6.80084 10.2733 6.82054 10.3522 6.85798 10.4256C6.89541 10.499 6.94983 10.5654 7.01805 10.6209L8.44662 11.8239C8.58057 11.9367 8.76222 12 8.95162 12C9.14103 12 9.32267 11.9367 9.45662 11.8239L11.5995 10.0194C11.7296 9.90593 11.8016 9.75399 11.8 9.59628C11.7983 9.43856 11.7232 9.2877 11.5908 9.17618C11.4583 9.06465 11.2792 9.00139 11.0919 9.00002C10.9046 8.99865 10.7242 9.05928 10.5895 9.16885Z" fill="#fff"/>
<path d="M18.1333 10H13.4667C13.2898 10 13.1203 10.0527 12.9952 10.1464C12.8702 10.2402 12.8 10.3674 12.8 10.5C12.8 10.6326 12.8702 10.7598 12.9952 10.8536C13.1203 10.9473 13.2898 11 13.4667 11H18.1333C18.3101 11 18.4797 10.9473 18.6047 10.8536C18.7298 10.7598 18.8 10.6326 18.8 10.5C18.8 10.3674 18.7298 10.2402 18.6047 10.1464C18.4797 10.0527 18.3101 10 18.1333 10Z" fill="#fff"/>
<path d="M10.5895 15.1688L8.95162 16.5481L8.02805 15.7704C7.96216 15.7129 7.88334 15.6671 7.7962 15.6356C7.70905 15.604 7.61532 15.5874 7.52048 15.5867C7.42564 15.586 7.33158 15.6013 7.2438 15.6315C7.15601 15.6618 7.07626 15.7064 7.0092 15.7629C6.94213 15.8194 6.88909 15.8865 6.85318 15.9605C6.81726 16.0344 6.79919 16.1136 6.80001 16.1935C6.80084 16.2733 6.82054 16.3522 6.85798 16.4256C6.89541 16.499 6.94983 16.5654 7.01805 16.6209L8.44662 17.8239C8.58057 17.9367 8.76222 18 8.95162 18C9.14103 18 9.32267 17.9367 9.45662 17.8239L11.5995 16.0194C11.7296 15.9059 11.8016 15.754 11.8 15.5963C11.7983 15.4386 11.7232 15.2877 11.5908 15.1762C11.4583 15.0647 11.2792 15.0014 11.0919 15C10.9046 14.9987 10.7242 15.0593 10.5895 15.1688Z" fill="#fff"/>
<path d="M18.1333 16H13.4667C13.2898 16 13.1203 16.0527 12.9952 16.1464C12.8702 16.2402 12.8 16.3674 12.8 16.5C12.8 16.6326 12.8702 16.7598 12.9952 16.8536C13.1203 16.9473 13.2898 17 13.4667 17H18.1333C18.3101 17 18.4797 16.9473 18.6047 16.8536C18.7298 16.7598 18.8 16.6326 18.8 16.5C18.8 16.3674 18.7298 16.2402 18.6047 16.1464C18.4797 16.0527 18.3101 16 18.1333 16Z" fill="#fff"/>
</svg>
