<svg width="25" height="24" viewBox="0 0 25 24" fill="none" xmlns="http://www.w3.org/2000/svg">
<path d="M8.11561 15.8421L6.57675 17.3843V4.5047C6.57675 4.28032 6.48761 4.06513 6.32895 3.90646C6.17029 3.7478 5.9551 3.65867 5.73072 3.65867C5.50633 3.65867 5.29114 3.7478 5.13248 3.90646C4.97382 4.06513 4.88469 4.28032 4.88469 4.5047V17.3833L3.34577 15.8433L3.34574 15.8433C3.26706 15.7646 3.17365 15.7022 3.07085 15.6596C2.96805 15.617 2.85786 15.5951 2.74659 15.5951C2.63532 15.5951 2.52514 15.617 2.42234 15.6596C2.31953 15.7022 2.22612 15.7646 2.14744 15.8433C2.06876 15.922 2.00635 16.0154 1.96377 16.1182C1.92118 16.221 1.89927 16.3312 1.89927 16.4424C1.89927 16.5537 1.92118 16.6639 1.96377 16.7667C2.00635 16.8695 2.06876 16.9629 2.14744 17.0416L2.14747 17.0416L5.1316 20.0233L5.13148 20.0234L5.13584 20.0273L5.14533 20.0357C5.30401 20.1898 5.51705 20.2752 5.73832 20.2734C5.96027 20.2715 6.17249 20.182 6.32872 20.0244C6.32881 20.0243 6.32889 20.0242 6.32897 20.0241L9.3127 17.0404C9.31272 17.0404 9.31273 17.0404 9.31275 17.0403C9.47164 16.8816 9.56097 16.6663 9.5611 16.4417C9.56124 16.2171 9.47214 16.0016 9.31341 15.8427C9.15468 15.6838 8.93932 15.5944 8.71472 15.5943C8.49011 15.5942 8.27465 15.6833 8.11573 15.842L8.11561 15.8421ZM11.8468 5.39853C11.6881 5.55719 11.599 5.77238 11.599 5.99676C11.599 6.22114 11.6881 6.43633 11.8468 6.59499C12.0054 6.75366 12.2206 6.84279 12.445 6.84279H22.8894C23.1138 6.84279 23.329 6.75366 23.4877 6.59499C23.6463 6.43633 23.7355 6.22114 23.7355 5.99676C23.7355 5.77238 23.6463 5.55719 23.4877 5.39853C23.329 5.23986 23.1138 5.15073 22.8894 5.15073H12.445C12.2206 5.15073 12.0054 5.23986 11.8468 5.39853ZM12.445 9.62691C12.2206 9.62691 12.0054 9.71605 11.8468 9.87471C11.6881 10.0334 11.599 10.2486 11.599 10.4729C11.599 10.6973 11.6881 10.9125 11.8468 11.0712C12.0054 11.2298 12.2206 11.319 12.445 11.319H19.9053C20.1297 11.319 20.3449 11.2298 20.5035 11.0712C20.6622 10.9125 20.7513 10.6973 20.7513 10.4729C20.7513 10.2486 20.6622 10.0334 20.5035 9.87471C20.3449 9.71605 20.1297 9.62691 19.9053 9.62691H12.445ZM12.445 14.1031C12.2206 14.1031 12.0054 14.1922 11.8468 14.3509C11.6881 14.5096 11.599 14.7248 11.599 14.9491C11.599 15.1735 11.6881 15.3887 11.8468 15.5474C12.0054 15.706 12.2206 15.7952 12.445 15.7952H16.9212C17.1456 15.7952 17.3608 15.706 17.5194 15.5474C17.6781 15.3887 17.7672 15.1735 17.7672 14.9491C17.7672 14.7248 17.6781 14.5096 17.5194 14.3509C17.3608 14.1922 17.1456 14.1031 16.9212 14.1031H12.445ZM12.445 18.5793C12.3339 18.5793 12.2239 18.6012 12.1212 18.6437C12.0186 18.6862 11.9253 18.7485 11.8468 18.8271C11.7682 18.9056 11.7059 18.9989 11.6634 19.1016C11.6208 19.2042 11.599 19.3142 11.599 19.4253C11.599 19.5364 11.6208 19.6464 11.6634 19.7491C11.7059 19.8517 11.7682 19.945 11.8468 20.0236C11.9253 20.1021 12.0186 20.1644 12.1212 20.2069C12.2239 20.2495 12.3339 20.2713 12.445 20.2713H13.9371C14.0482 20.2713 14.1582 20.2495 14.2608 20.2069C14.3635 20.1644 14.4567 20.1021 14.5353 20.0236C14.6139 19.945 14.6762 19.8517 14.7187 19.7491C14.7612 19.6464 14.7831 19.5364 14.7831 19.4253C14.7831 19.3142 14.7612 19.2042 14.7187 19.1016C14.6762 18.9989 14.6139 18.9056 14.5353 18.8271C14.4567 18.7485 14.3635 18.6862 14.2608 18.6437C14.1582 18.6012 14.0482 18.5793 13.9371 18.5793H12.445Z" fill="#070F21" stroke="#070F21" stroke-width="0.2"/>
</svg>
